<svg xmlns="http://www.w3.org/2000/svg" viewBox="0 0 32 32">
  <rect width="32" height="32" rx="8" fill="#0a0b10"/>
  <path d="M16 4C9.37 4 4 9.37 4 16c0 5.37 3.43 9.94 8.22 11.62-.11-.67-.17-1.36-.17-2.01 0-5.23 3.34-9.67 8-11.32-4.66-1.65-8-6.09-8-11.32 0-.65.06-1.34.17-2.01C7.43 6.06 4 10.63 4 16z" fill="none"/>
  <path fill-rule="evenodd" d="M16 3C9.37 3 4 8.37 4 15c0 .69.06 1.37.17 2.03 4.66-1.65 8-6.09 8-11.32C12.17 5.7 12.23 5 12.34 4.34 13.52 3.48 14.7 3 16 3zm0 26c6.63 0 12-5.37 12-12 0-.69-.06-1.37-.17-2.03-4.66 1.65-8 6.09-8 11.32 0 .01 0 .01 0 .02-.01.64-.07 1.33-.17 1.99C18.48 28.52 17.3 29 16 29z" fill="#00ff88" opacity="0.9"/>
  <path d="M13 10l-3 3 3 3M19 10l3 3-3 3M15 22l2-8" stroke="#00ff88" stroke-width="1.5" stroke-linecap="round" stroke-linejoin="round" fill="none"/>
</svg>
